<mxfile host="app.diagrams.net" modified="2023-04-01T19:40:32.025Z" agent="Mozilla/5.0 (Macintosh; Intel Mac OS X 10_15_7) AppleWebKit/605.1.15 (KHTML, like Gecko) Version/16.3 Safari/605.1.15" etag="ALA_vKEavAZQ0bjUWe_-" version="21.1.2" type="google">
  <diagram id="C5RBs43oDa-KdzZeNtuy" name="Page-1">
    <mxGraphModel grid="1" page="1" gridSize="10" guides="1" tooltips="1" connect="1" arrows="1" fold="1" pageScale="1" pageWidth="827" pageHeight="1169" math="0" shadow="0">
      <root>
        <mxCell id="WIyWlLk6GJQsqaUBKTNV-0" />
        <mxCell id="WIyWlLk6GJQsqaUBKTNV-1" parent="WIyWlLk6GJQsqaUBKTNV-0" />
        <mxCell id="qUP7Lgh9B8KJiC_pq_hR-18" style="edgeStyle=orthogonalEdgeStyle;rounded=0;orthogonalLoop=1;jettySize=auto;html=1;exitX=0.5;exitY=0;exitDx=0;exitDy=0;entryX=0.5;entryY=0;entryDx=0;entryDy=0;endArrow=open;endFill=0;dashed=1;" edge="1" parent="WIyWlLk6GJQsqaUBKTNV-1" source="VCJESpt-KBv_fy-IKeRf-0" target="qUP7Lgh9B8KJiC_pq_hR-4">
          <mxGeometry relative="1" as="geometry" />
        </mxCell>
        <mxCell id="VCJESpt-KBv_fy-IKeRf-0" value="&lt;span style=&quot;font-weight: normal;&quot;&gt;&amp;lt;&amp;lt;Protocol&amp;gt;&amp;gt;&lt;/span&gt;&lt;br&gt;ProjectorFactory" style="swimlane;fontStyle=1;align=center;verticalAlign=top;childLayout=stackLayout;horizontal=1;startSize=40;horizontalStack=0;resizeParent=1;resizeParentMax=0;resizeLast=0;collapsible=1;marginBottom=0;whiteSpace=wrap;html=1;fillColor=#dae8fc;strokeColor=#6c8ebf;" vertex="1" parent="WIyWlLk6GJQsqaUBKTNV-1">
          <mxGeometry x="25" y="180" width="290" height="120" as="geometry" />
        </mxCell>
        <mxCell id="VCJESpt-KBv_fy-IKeRf-1" value="..." style="text;strokeColor=none;fillColor=none;align=left;verticalAlign=top;spacingLeft=4;spacingRight=4;overflow=hidden;rotatable=0;points=[[0,0.5],[1,0.5]];portConstraint=eastwest;whiteSpace=wrap;html=1;" vertex="1" parent="VCJESpt-KBv_fy-IKeRf-0">
          <mxGeometry y="40" width="290" height="26" as="geometry" />
        </mxCell>
        <mxCell id="VCJESpt-KBv_fy-IKeRf-2" value="" style="line;strokeWidth=1;fillColor=none;align=left;verticalAlign=middle;spacingTop=-1;spacingLeft=3;spacingRight=3;rotatable=0;labelPosition=right;points=[];portConstraint=eastwest;strokeColor=inherit;" vertex="1" parent="VCJESpt-KBv_fy-IKeRf-0">
          <mxGeometry y="66" width="290" height="8" as="geometry" />
        </mxCell>
        <mxCell id="VCJESpt-KBv_fy-IKeRf-3" value="&lt;div&gt;+ func createProjector() -&amp;gt; Projector&lt;/div&gt;&lt;div&gt;+ func syncedProjector(with: Projector) -&amp;gt; Projector&lt;br&gt;&lt;/div&gt;" style="text;strokeColor=none;fillColor=none;align=left;verticalAlign=top;spacingLeft=4;spacingRight=4;overflow=hidden;rotatable=0;points=[[0,0.5],[1,0.5]];portConstraint=eastwest;whiteSpace=wrap;html=1;" vertex="1" parent="VCJESpt-KBv_fy-IKeRf-0">
          <mxGeometry y="74" width="290" height="46" as="geometry" />
        </mxCell>
        <mxCell id="qUP7Lgh9B8KJiC_pq_hR-1" style="edgeStyle=orthogonalEdgeStyle;rounded=0;orthogonalLoop=1;jettySize=auto;html=1;exitX=0.5;exitY=0;exitDx=0;exitDy=0;entryX=0.507;entryY=1.022;entryDx=0;entryDy=0;entryPerimeter=0;dashed=1;endArrow=block;endFill=0;" edge="1" parent="WIyWlLk6GJQsqaUBKTNV-1" source="VCJESpt-KBv_fy-IKeRf-4" target="VCJESpt-KBv_fy-IKeRf-3">
          <mxGeometry relative="1" as="geometry" />
        </mxCell>
        <mxCell id="VCJESpt-KBv_fy-IKeRf-4" value="WifiFactory" style="swimlane;fontStyle=1;align=center;verticalAlign=top;childLayout=stackLayout;horizontal=1;startSize=26;horizontalStack=0;resizeParent=1;resizeParentMax=0;resizeLast=0;collapsible=1;marginBottom=0;whiteSpace=wrap;html=1;fillColor=#dae8fc;strokeColor=#6c8ebf;" vertex="1" parent="WIyWlLk6GJQsqaUBKTNV-1">
          <mxGeometry x="-70" y="390" width="210" height="90" as="geometry" />
        </mxCell>
        <mxCell id="VCJESpt-KBv_fy-IKeRf-5" value="..." style="text;strokeColor=none;fillColor=none;align=left;verticalAlign=top;spacingLeft=4;spacingRight=4;overflow=hidden;rotatable=0;points=[[0,0.5],[1,0.5]];portConstraint=eastwest;whiteSpace=wrap;html=1;" vertex="1" parent="VCJESpt-KBv_fy-IKeRf-4">
          <mxGeometry y="26" width="210" height="26" as="geometry" />
        </mxCell>
        <mxCell id="VCJESpt-KBv_fy-IKeRf-6" value="" style="line;strokeWidth=1;fillColor=none;align=left;verticalAlign=middle;spacingTop=-1;spacingLeft=3;spacingRight=3;rotatable=0;labelPosition=right;points=[];portConstraint=eastwest;strokeColor=inherit;" vertex="1" parent="VCJESpt-KBv_fy-IKeRf-4">
          <mxGeometry y="52" width="210" height="8" as="geometry" />
        </mxCell>
        <mxCell id="VCJESpt-KBv_fy-IKeRf-7" value="&lt;div&gt;+ func createProjector() -&amp;gt; Projector&lt;br&gt;&lt;/div&gt;" style="text;strokeColor=none;fillColor=none;align=left;verticalAlign=top;spacingLeft=4;spacingRight=4;overflow=hidden;rotatable=0;points=[[0,0.5],[1,0.5]];portConstraint=eastwest;whiteSpace=wrap;html=1;" vertex="1" parent="VCJESpt-KBv_fy-IKeRf-4">
          <mxGeometry y="60" width="210" height="30" as="geometry" />
        </mxCell>
        <mxCell id="qUP7Lgh9B8KJiC_pq_hR-2" style="edgeStyle=orthogonalEdgeStyle;rounded=0;orthogonalLoop=1;jettySize=auto;html=1;exitX=0.5;exitY=0;exitDx=0;exitDy=0;entryX=0.507;entryY=1.022;entryDx=0;entryDy=0;entryPerimeter=0;endArrow=block;endFill=0;dashed=1;" edge="1" parent="WIyWlLk6GJQsqaUBKTNV-1" source="VCJESpt-KBv_fy-IKeRf-8" target="VCJESpt-KBv_fy-IKeRf-3">
          <mxGeometry relative="1" as="geometry" />
        </mxCell>
        <mxCell id="VCJESpt-KBv_fy-IKeRf-8" value="BluetoothFactory" style="swimlane;fontStyle=1;align=center;verticalAlign=top;childLayout=stackLayout;horizontal=1;startSize=26;horizontalStack=0;resizeParent=1;resizeParentMax=0;resizeLast=0;collapsible=1;marginBottom=0;whiteSpace=wrap;html=1;fillColor=#dae8fc;strokeColor=#6c8ebf;" vertex="1" parent="WIyWlLk6GJQsqaUBKTNV-1">
          <mxGeometry x="200" y="390" width="210" height="90" as="geometry" />
        </mxCell>
        <mxCell id="VCJESpt-KBv_fy-IKeRf-9" value="..." style="text;strokeColor=none;fillColor=none;align=left;verticalAlign=top;spacingLeft=4;spacingRight=4;overflow=hidden;rotatable=0;points=[[0,0.5],[1,0.5]];portConstraint=eastwest;whiteSpace=wrap;html=1;" vertex="1" parent="VCJESpt-KBv_fy-IKeRf-8">
          <mxGeometry y="26" width="210" height="26" as="geometry" />
        </mxCell>
        <mxCell id="VCJESpt-KBv_fy-IKeRf-10" value="" style="line;strokeWidth=1;fillColor=none;align=left;verticalAlign=middle;spacingTop=-1;spacingLeft=3;spacingRight=3;rotatable=0;labelPosition=right;points=[];portConstraint=eastwest;strokeColor=inherit;" vertex="1" parent="VCJESpt-KBv_fy-IKeRf-8">
          <mxGeometry y="52" width="210" height="8" as="geometry" />
        </mxCell>
        <mxCell id="VCJESpt-KBv_fy-IKeRf-11" value="&lt;div&gt;+ func createProjector() -&amp;gt; Projector&lt;br&gt;&lt;/div&gt;" style="text;strokeColor=none;fillColor=none;align=left;verticalAlign=top;spacingLeft=4;spacingRight=4;overflow=hidden;rotatable=0;points=[[0,0.5],[1,0.5]];portConstraint=eastwest;whiteSpace=wrap;html=1;" vertex="1" parent="VCJESpt-KBv_fy-IKeRf-8">
          <mxGeometry y="60" width="210" height="30" as="geometry" />
        </mxCell>
        <mxCell id="VCJESpt-KBv_fy-IKeRf-40" value="Factory Method" style="text;html=1;strokeColor=none;fillColor=none;align=center;verticalAlign=middle;whiteSpace=wrap;rounded=0;fontSize=20;fontColor=#004C99;" vertex="1" parent="WIyWlLk6GJQsqaUBKTNV-1">
          <mxGeometry x="494" y="50" width="226" height="30" as="geometry" />
        </mxCell>
        <mxCell id="qUP7Lgh9B8KJiC_pq_hR-4" value="&lt;span style=&quot;font-weight: normal;&quot;&gt;&amp;lt;&amp;lt;Protocol&amp;gt;&amp;gt;&lt;/span&gt;&lt;br&gt;Projector" style="swimlane;fontStyle=1;align=center;verticalAlign=top;childLayout=stackLayout;horizontal=1;startSize=40;horizontalStack=0;resizeParent=1;resizeParentMax=0;resizeLast=0;collapsible=1;marginBottom=0;whiteSpace=wrap;html=1;fillColor=#dae8fc;strokeColor=#6c8ebf;" vertex="1" parent="WIyWlLk6GJQsqaUBKTNV-1">
          <mxGeometry x="872.5" y="178" width="215" height="130" as="geometry" />
        </mxCell>
        <mxCell id="qUP7Lgh9B8KJiC_pq_hR-5" value="+ var currentPage: Int { get }" style="text;strokeColor=none;fillColor=none;align=left;verticalAlign=top;spacingLeft=4;spacingRight=4;overflow=hidden;rotatable=0;points=[[0,0.5],[1,0.5]];portConstraint=eastwest;whiteSpace=wrap;html=1;" vertex="1" parent="qUP7Lgh9B8KJiC_pq_hR-4">
          <mxGeometry y="40" width="215" height="26" as="geometry" />
        </mxCell>
        <mxCell id="qUP7Lgh9B8KJiC_pq_hR-6" value="" style="line;strokeWidth=1;fillColor=none;align=left;verticalAlign=middle;spacingTop=-1;spacingLeft=3;spacingRight=3;rotatable=0;labelPosition=right;points=[];portConstraint=eastwest;strokeColor=inherit;" vertex="1" parent="qUP7Lgh9B8KJiC_pq_hR-4">
          <mxGeometry y="66" width="215" height="8" as="geometry" />
        </mxCell>
        <mxCell id="qUP7Lgh9B8KJiC_pq_hR-7" value="&lt;div&gt;+ func present(info: String)&lt;br&gt;&lt;/div&gt;&lt;div&gt;+ func sync(with projector: Projector)&lt;br&gt;&lt;/div&gt;&lt;div&gt;+ func update(with page: Int)&lt;br&gt;&lt;/div&gt;" style="text;strokeColor=none;fillColor=none;align=left;verticalAlign=top;spacingLeft=4;spacingRight=4;overflow=hidden;rotatable=0;points=[[0,0.5],[1,0.5]];portConstraint=eastwest;whiteSpace=wrap;html=1;" vertex="1" parent="qUP7Lgh9B8KJiC_pq_hR-4">
          <mxGeometry y="74" width="215" height="56" as="geometry" />
        </mxCell>
        <mxCell id="qUP7Lgh9B8KJiC_pq_hR-8" style="edgeStyle=orthogonalEdgeStyle;rounded=0;orthogonalLoop=1;jettySize=auto;html=1;exitX=0.5;exitY=0;exitDx=0;exitDy=0;dashed=1;endArrow=block;endFill=0;entryX=0.5;entryY=1;entryDx=0;entryDy=0;entryPerimeter=0;" edge="1" parent="WIyWlLk6GJQsqaUBKTNV-1" source="qUP7Lgh9B8KJiC_pq_hR-19" target="qUP7Lgh9B8KJiC_pq_hR-7">
          <mxGeometry relative="1" as="geometry">
            <mxPoint x="882.5" y="390" as="sourcePoint" />
            <mxPoint x="1017.5" y="330" as="targetPoint" />
            <Array as="points">
              <mxPoint x="882.5" y="350" />
              <mxPoint x="980.5" y="350" />
              <mxPoint x="980.5" y="308" />
            </Array>
          </mxGeometry>
        </mxCell>
        <mxCell id="qUP7Lgh9B8KJiC_pq_hR-19" value="WifiProjector" style="swimlane;fontStyle=1;align=center;verticalAlign=top;childLayout=stackLayout;horizontal=1;startSize=26;horizontalStack=0;resizeParent=1;resizeParentMax=0;resizeLast=0;collapsible=1;marginBottom=0;whiteSpace=wrap;html=1;fillColor=#dae8fc;strokeColor=#6c8ebf;" vertex="1" parent="WIyWlLk6GJQsqaUBKTNV-1">
          <mxGeometry x="790" y="400" width="170" height="100" as="geometry" />
        </mxCell>
        <mxCell id="qUP7Lgh9B8KJiC_pq_hR-20" value="+ var currentPage: Int { get }" style="text;strokeColor=none;fillColor=none;align=left;verticalAlign=top;spacingLeft=4;spacingRight=4;overflow=hidden;rotatable=0;points=[[0,0.5],[1,0.5]];portConstraint=eastwest;whiteSpace=wrap;html=1;" vertex="1" parent="qUP7Lgh9B8KJiC_pq_hR-19">
          <mxGeometry y="26" width="170" height="26" as="geometry" />
        </mxCell>
        <mxCell id="qUP7Lgh9B8KJiC_pq_hR-21" value="" style="line;strokeWidth=1;fillColor=none;align=left;verticalAlign=middle;spacingTop=-1;spacingLeft=3;spacingRight=3;rotatable=0;labelPosition=right;points=[];portConstraint=eastwest;strokeColor=inherit;" vertex="1" parent="qUP7Lgh9B8KJiC_pq_hR-19">
          <mxGeometry y="52" width="170" height="8" as="geometry" />
        </mxCell>
        <mxCell id="qUP7Lgh9B8KJiC_pq_hR-22" value="&lt;div&gt;+ func present(info: String)&lt;/div&gt;&lt;div&gt;+ func update(with page: Int)&lt;br&gt;&lt;/div&gt;" style="text;strokeColor=none;fillColor=none;align=left;verticalAlign=top;spacingLeft=4;spacingRight=4;overflow=hidden;rotatable=0;points=[[0,0.5],[1,0.5]];portConstraint=eastwest;whiteSpace=wrap;html=1;" vertex="1" parent="qUP7Lgh9B8KJiC_pq_hR-19">
          <mxGeometry y="60" width="170" height="40" as="geometry" />
        </mxCell>
        <mxCell id="qUP7Lgh9B8KJiC_pq_hR-27" style="edgeStyle=orthogonalEdgeStyle;rounded=0;orthogonalLoop=1;jettySize=auto;html=1;exitX=0.5;exitY=0;exitDx=0;exitDy=0;endArrow=block;endFill=0;dashed=1;" edge="1" parent="WIyWlLk6GJQsqaUBKTNV-1">
          <mxGeometry relative="1" as="geometry">
            <mxPoint x="1104.5" y="400" as="sourcePoint" />
            <mxPoint x="980.5" y="308" as="targetPoint" />
            <Array as="points">
              <mxPoint x="1104.5" y="350" />
              <mxPoint x="980.5" y="350" />
            </Array>
          </mxGeometry>
        </mxCell>
        <mxCell id="qUP7Lgh9B8KJiC_pq_hR-23" value="BluetoothProjector" style="swimlane;fontStyle=1;align=center;verticalAlign=top;childLayout=stackLayout;horizontal=1;startSize=26;horizontalStack=0;resizeParent=1;resizeParentMax=0;resizeLast=0;collapsible=1;marginBottom=0;whiteSpace=wrap;html=1;fillColor=#dae8fc;strokeColor=#6c8ebf;" vertex="1" parent="WIyWlLk6GJQsqaUBKTNV-1">
          <mxGeometry x="1000" y="400" width="170" height="100" as="geometry" />
        </mxCell>
        <mxCell id="qUP7Lgh9B8KJiC_pq_hR-24" value="+ var currentPage: Int { get }" style="text;strokeColor=none;fillColor=none;align=left;verticalAlign=top;spacingLeft=4;spacingRight=4;overflow=hidden;rotatable=0;points=[[0,0.5],[1,0.5]];portConstraint=eastwest;whiteSpace=wrap;html=1;" vertex="1" parent="qUP7Lgh9B8KJiC_pq_hR-23">
          <mxGeometry y="26" width="170" height="26" as="geometry" />
        </mxCell>
        <mxCell id="qUP7Lgh9B8KJiC_pq_hR-25" value="" style="line;strokeWidth=1;fillColor=none;align=left;verticalAlign=middle;spacingTop=-1;spacingLeft=3;spacingRight=3;rotatable=0;labelPosition=right;points=[];portConstraint=eastwest;strokeColor=inherit;" vertex="1" parent="qUP7Lgh9B8KJiC_pq_hR-23">
          <mxGeometry y="52" width="170" height="8" as="geometry" />
        </mxCell>
        <mxCell id="qUP7Lgh9B8KJiC_pq_hR-26" value="&lt;div&gt;+ func present(info: String)&lt;/div&gt;&lt;div&gt;+ func update(with page: Int)&lt;br&gt;&lt;/div&gt;" style="text;strokeColor=none;fillColor=none;align=left;verticalAlign=top;spacingLeft=4;spacingRight=4;overflow=hidden;rotatable=0;points=[[0,0.5],[1,0.5]];portConstraint=eastwest;whiteSpace=wrap;html=1;" vertex="1" parent="qUP7Lgh9B8KJiC_pq_hR-23">
          <mxGeometry y="60" width="170" height="40" as="geometry" />
        </mxCell>
        <mxCell id="qUP7Lgh9B8KJiC_pq_hR-28" value="Client" style="swimlane;fontStyle=1;align=center;verticalAlign=top;childLayout=stackLayout;horizontal=1;startSize=26;horizontalStack=0;resizeParent=1;resizeParentMax=0;resizeLast=0;collapsible=1;marginBottom=0;whiteSpace=wrap;html=1;fillColor=#dae8fc;strokeColor=#6c8ebf;" vertex="1" parent="WIyWlLk6GJQsqaUBKTNV-1">
          <mxGeometry x="460" y="258" width="280" height="90" as="geometry" />
        </mxCell>
        <mxCell id="qUP7Lgh9B8KJiC_pq_hR-29" value="- var currentProjector: Projector?" style="text;strokeColor=none;fillColor=none;align=left;verticalAlign=top;spacingLeft=4;spacingRight=4;overflow=hidden;rotatable=0;points=[[0,0.5],[1,0.5]];portConstraint=eastwest;whiteSpace=wrap;html=1;" vertex="1" parent="qUP7Lgh9B8KJiC_pq_hR-28">
          <mxGeometry y="26" width="280" height="26" as="geometry" />
        </mxCell>
        <mxCell id="qUP7Lgh9B8KJiC_pq_hR-30" value="" style="line;strokeWidth=1;fillColor=none;align=left;verticalAlign=middle;spacingTop=-1;spacingLeft=3;spacingRight=3;rotatable=0;labelPosition=right;points=[];portConstraint=eastwest;strokeColor=inherit;" vertex="1" parent="qUP7Lgh9B8KJiC_pq_hR-28">
          <mxGeometry y="52" width="280" height="8" as="geometry" />
        </mxCell>
        <mxCell id="qUP7Lgh9B8KJiC_pq_hR-31" value="&lt;div&gt;+ func present(info: String, with: ProjectorFactory)&lt;/div&gt;" style="text;strokeColor=none;fillColor=none;align=left;verticalAlign=top;spacingLeft=4;spacingRight=4;overflow=hidden;rotatable=0;points=[[0,0.5],[1,0.5]];portConstraint=eastwest;whiteSpace=wrap;html=1;" vertex="1" parent="qUP7Lgh9B8KJiC_pq_hR-28">
          <mxGeometry y="60" width="280" height="30" as="geometry" />
        </mxCell>
        <mxCell id="qUP7Lgh9B8KJiC_pq_hR-32" style="edgeStyle=orthogonalEdgeStyle;rounded=0;orthogonalLoop=1;jettySize=auto;html=1;exitX=1;exitY=0.5;exitDx=0;exitDy=0;entryX=0;entryY=0.25;entryDx=0;entryDy=0;endArrow=open;endFill=0;dashed=1;" edge="1" parent="WIyWlLk6GJQsqaUBKTNV-1" source="qUP7Lgh9B8KJiC_pq_hR-29" target="qUP7Lgh9B8KJiC_pq_hR-4">
          <mxGeometry relative="1" as="geometry" />
        </mxCell>
        <mxCell id="qUP7Lgh9B8KJiC_pq_hR-33" style="edgeStyle=orthogonalEdgeStyle;rounded=0;orthogonalLoop=1;jettySize=auto;html=1;exitX=0;exitY=0.5;exitDx=0;exitDy=0;entryX=0.997;entryY=0.16;entryDx=0;entryDy=0;entryPerimeter=0;endArrow=open;endFill=0;dashed=1;" edge="1" parent="WIyWlLk6GJQsqaUBKTNV-1" source="qUP7Lgh9B8KJiC_pq_hR-31" target="VCJESpt-KBv_fy-IKeRf-0">
          <mxGeometry relative="1" as="geometry">
            <mxPoint x="360" y="201" as="targetPoint" />
          </mxGeometry>
        </mxCell>
      </root>
    </mxGraphModel>
  </diagram>
</mxfile>
